HIERARCHY
ROOT Spine
{
    OFFSET 0.0 0.0 -0.0
    CHANNELS 6 Xposition Yposition Zposition Zrotation Xrotation Yrotation
    JOINT ShoulderCenter
    {
        OFFSET 0.0 19.745180130004883 0.0
        CHANNELS 3 Zrotation Xrotation Yrotation
        JOINT LeftShoulder
        {
            OFFSET 13.321146011352539 0.0 0.0
            CHANNELS 3 Zrotation Xrotation Yrotation
            JOINT LeftElbow
            {
                OFFSET 21.55130958557129 0.0 0.0
                CHANNELS 3 Zrotation Xrotation Yrotation
                JOINT LeftHand
                {
                    OFFSET 24.723426818847656 0.0 0.0
                    CHANNELS 3 Zrotation Xrotation Yrotation
                    End Site
                    {
                        OFFSET 9.889371871948242 0.0 0.0
                    }
                }
            }
        }
        JOINT RightShoulder
        {
            OFFSET -13.321146011352539 0.0 0.0
            CHANNELS 3 Zrotation Xrotation Yrotation
            JOINT RightElbow
            {
                OFFSET -21.55130958557129 0.0 0.0
                CHANNELS 3 Zrotation Xrotation Yrotation
                JOINT RightHand
                {
                    OFFSET -24.723426818847656 0.0 0.0
                    CHANNELS 3 Zrotation Xrotation Yrotation
                    End Site
                    {
                        OFFSET -9.889371871948242 0.0 0.0
                    }
                }
            }
        }
        End Site
        {
            OFFSET 0.0 7.898072719573975 0.0
        }
    }
    JOINT LeftHip
    {
        OFFSET 18.643502664041876 -18.643502664041876 0.0
        CHANNELS 3 Zrotation Xrotation Yrotation
        JOINT LeftKnee
        {
            OFFSET 0.0 -29.80474853515625 0.0
            CHANNELS 3 Zrotation Xrotation Yrotation
            JOINT LeftFoot
            {
                OFFSET 0.0 -38.13325881958008 0.0
                CHANNELS 3 Zrotation Xrotation Yrotation
                End Site
                {
                    OFFSET 0.0 0.0 15.253301620483398
                }
            }
        }
    }
    JOINT RightHip
    {
        OFFSET -18.643502664041876 -18.643502664041876 0.0
        CHANNELS 3 Zrotation Xrotation Yrotation
        JOINT RightKnee
        {
            OFFSET 0.0 -29.80474853515625 0.0
            CHANNELS 3 Zrotation Xrotation Yrotation
            JOINT RightFoot
            {
                OFFSET 0.0 -38.13325881958008 0.0
                CHANNELS 3 Zrotation Xrotation Yrotation
                End Site
                {
                    OFFSET 0.0 0.0 15.253301620483398
                }
            }
        }
    }
}
MOTION
Frames: 7
Frame Time: 0.03333333333333333
37.460330963134766 43.300907135009766 -372.0997009277344 -0.9953830752247288 18.91650067875435 -11.932864377557543 5.297842349009602e-07 -1.6253489997140449e-06 171.52502525341419 -106.32376513603936 -34.530834418059996 -68.23676067344091 2.088799222473971e-06 2.161731676956966e-06 81.27763727333821 8.647133040228935e-15 1.1927080055488184e-15 -7.951386703658791e-16 82.69439835594477 -51.68365997426181 59.76711966122918 -1.556178841317097e-08 -4.7302909573510955e-07 -112.14536696046015 -1.7655625192200634e-31 -6.3611093629270335e-15 -3.1805546814635168e-15 11.2803291698486 -6.648292435773092 -35.52358471647862 -3.4522438548383603 -8.046576901245045 52.34478988991997 -3.367543257179381e-36 1.5530052155583578e-18 2.4848083448933725e-16 -0.011071433842917797 2.733406079152815 42.62517759350874 -3.646002400614545 -9.319603902868076 -36.68074449561661 1.5862475758617757e-32 1.5902773407317588e-15 -1.1430118386509515e-15
37.45389938354492 43.26308822631836 -372.13958740234375 -1.2782339151655302 18.94895008046471 -13.217141525774139 -3.9697252226029627e-07 1.2372295482373046e-06 171.8471536148386 -106.91293383592863 -35.24763372266366 -69.06714430750357 -3.2897733356824504e-06 -5.978954334173442e-06 81.62139337943061 8.647133040228937e-15 -3.975693351829396e-16 3.0000769369559674e-32 80.54075930585881 -52.06340721192629 58.86505588602949 6.0906189826950644e-06 2.377957158219555e-06 -110.31614604053112 6.361109362927035e-15 6.361109362927035e-15 -3.1805546814635183e-15 11.893461979174468 -6.595078000480545 -42.93638336440785 -2.8502568604143352 -8.29567513256404 57.99902844806529 1.939704916135324e-34 1.5902773407317588e-15 -1.3977046940025222e-17 0.43510371813280485 2.686855586059207 41.541196427108865 -3.7359945545584345 -9.421098010462872 -36.78255811994218 4.9696166897867474e-17 -1.5902773407317584e-15 1.8139100917721617e-15
37.45515823364258 43.2761116027832 -372.13848876953125 -1.4607362508460386 18.957987418469937 -14.948698302562073 -2.7194264026950384e-07 -6.938416957322528e-07 172.82785461282143 -107.34240558970127 -35.7868943306316 -69.75053064622135 2.0991572540118545e-06 -3.0155095005244374e-06 81.91231906119799 6.5101978636206345e-15 1.1927080055488184e-15 -1.5902773407317582e-15 82.19342490514008 -55.797076684129586 60.14861999173043 -5.780913739318249e-06 7.187952567213621e-07 -111.40456470924653 -4.4139062980501586e-32 -1.5902773407317584e-15 -3.1805546814635168e-15 12.277125894912167 -6.303159171518899 -50.860820940991054 -1.7218371397279149 -8.272419396536945 63.09263189771377 -3.72721251734006e-17 3.882513038895892e-19 1.115057744770901e-15 0.6889944381087323 2.5795112690749553 41.317402334679315 -3.9570130831575128 -9.289975244820523 -36.97690836255701 1.2089480293273978e-34 6.212020862233431e-18 -2.2301154895418016e-15
37.422279357910156 43.18965148925781 -372.22381591796875 -1.6341734817232703 19.077397317665575 -15.258913947090583 1.4114605607885557e-07 3.64123952903471e-08 172.94737045361103 -107.61942522198929 -35.80332565864195 -69.92285180134955 -2.1088717064887125e-06 2.955290279305243e-07 82.01454919080943 -7.802298202965191e-15 -7.951386703658794e-16 -7.951386703658794e-16 82.11888509113764 -56.64992014992946 60.032219784454654 5.121637139517761e-07 3.6017953842846474e-07 -109.28858983437004 -1.7655625192200634e-31 -6.3611093629270335e-15 -3.1805546814635168e-15 12.692883499274709 -6.767779737997374 -51.74842718008797 -19.948021681735376 -0.5897218627494949 1.4756874631036365 4.4139062980501586e-32 3.1805546814635176e-15 -1.5902773407317588e-15 1.0770861258912277 2.5947323320769895 40.60924171506006 -4.206579434544439 -9.391317257211227 -37.31144218035184 -1.987846675914698e-16 1.5902773407317584e-15 1.2424041724466865e-17
37.082759857177734 43.1598014831543 -372.4980163574219 -0.530616516379398 18.78673686677751 -16.644911947690282 8.438859736553435e-08 1.1896533431181136e-07 173.74466555167828 -106.51615145387666 -36.00175180059477 -69.93600478631825 -5.53229992612357e-07 -1.3557634592209044e-06 82.09209804650341 -9.93923337957349e-17 3.975693351829396e-16 3.4483642953516864e-34 82.5482503856021 -58.469358540429326 58.42564373310753 -4.783379958143036e-06 5.250000733829811e-06 -109.37244431398909 0.0 0.0 3.1805546814635168e-15 11.733080865324158 -6.638200543677457 -39.337074073987296 -3.517152689616846 -7.677424685053687 51.51083719054753 3.106010431116715e-17 3.8825130388958935e-19 -2.2052674060928675e-16 0.03665104109934271 2.622407022935092 42.647612923517215 -5.028770227477056 -10.738453781995446 -44.41576685754732 1.987846675914698e-16 -2.0043617466731677e-33 -1.1554358803754182e-15
37.01319122314453 43.15052795410156 -372.5670166015625 -0.6237703271066388 18.854860000169896 -17.235347178673493 1.3276545064589603e-07 1.3916723020911516e-06 173.8000046343807 -106.72722876344753 -36.53187367384732 -70.18969074244889 -3.026780886049144e-07 1.1713635795858398e-06 82.17578921515546 8.448348372637467e-16 7.951386703658792e-16 -5.862219302097867e-33 80.49982154908035 -60.715170306606744 56.31656655504518 2.3958465551416108e-06 -2.886238053236318e-06 -108.5258047137517 3.1805546814635168e-15 4.770832022195275e-15 3.1805546814635168e-15 11.990835113939886 -6.635458495426713 -40.34314399307173 -3.3309494235231862 -7.798806004853298 53.487067973529975 -6.212020862233431e-18 -9.706282597239739e-20 5.307395324170687e-16 0.22113352623753602 3.040394297556776 43.60739617664286 -5.45651793964345 -10.496783750610643 -44.343021805035875 -1.987846675914698e-16 1.5654292572828244e-15 1.329372464517954e-15
36.87630844116211 43.092899322509766 -372.58612060546875 -0.48335759939712886 18.975576429280572 -17.94761710176348 -4.053818599005882e-07 1.3262607890748435e-06 173.77015587525042 -106.68373357409672 -37.25649547574506 -70.31555221230764 3.245945769900481e-06 7.63261933522677e-08 82.24955175874496 3.876301018033661e-15 0.0 0.0 72.88533806047293 -63.587489279650434 47.60212167036565 3.530157474094046e-06 -1.55265249496194e-06 -108.9582031632196 0.0 0.0 6.361109362927033e-15 12.105385114557405 -6.696982192676472 -38.69999778510059 -3.7153975496682774 -7.713431355527679 51.2463768286205 1.2424041724466865e-16 1.5530052155583582e-18 4.969616689786746e-17 0.20536601462720736 3.014846640167092 44.08304323948795 -5.616299055471143 -10.747945932950836 -45.805654451326454 -3.4114560212530007e-32 -1.565429257282825e-15 -2.4972323866178402e-15
